<svg width="15" height="15" viewBox="0 0 15 15" fill="none" xmlns="http://www.w3.org/2000/svg">
<path fill-rule="evenodd" clip-rule="evenodd" d="M7.5 15C11.6421 15 15 11.6421 15 7.5C15 3.35786 11.6421 0 7.5 0C3.35786 0 0 3.35786 0 7.5C0 11.6421 3.35786 15 7.5 15ZM10.6852 3.60518C10.7251 3.62571 10.7708 3.63597 10.8164 3.63597C10.869 3.63571 10.9205 3.62208 10.9649 3.59666C11.0092 3.57124 11.0448 3.53506 11.0673 3.49229C11.1414 3.36913 11.0901 3.21518 10.9476 3.14847C9.78418 2.60965 8.72346 2.36847 7.50877 2.36847C6.28267 2.36847 5.1193 2.63531 4.05858 3.1536C3.99257 3.18673 3.94364 3.24185 3.92231 3.3071C3.90098 3.37235 3.90896 3.44253 3.94452 3.50255C4.02436 3.62571 4.19545 3.67189 4.33231 3.60518C5.30749 3.12281 6.37962 2.88163 7.50877 2.88163C8.64362 2.88163 9.59029 3.09715 10.6852 3.60518ZM2.5064 6.29344C2.55145 6.31782 2.60312 6.33049 2.65569 6.33005C2.74694 6.33005 2.83248 6.29413 2.8781 6.22228C3.39135 5.57571 4.04147 5.06255 4.81705 4.70334C6.44805 3.94386 8.54097 3.94386 10.1777 4.69821C10.9481 5.05309 11.6115 5.57077 12.1109 6.20689C12.2022 6.32492 12.379 6.35057 12.5101 6.26847C12.541 6.24902 12.5672 6.22427 12.5874 6.19565C12.6075 6.16703 12.6212 6.13509 12.6275 6.1017C12.6339 6.0683 12.6328 6.0341 12.6244 6.00107C12.616 5.96804 12.6004 5.93684 12.5786 5.90926C12.014 5.19597 11.2954 4.63663 10.44 4.2415C8.64362 3.41018 6.3511 3.41531 4.56042 4.24663C3.70501 4.64176 2.98645 5.20623 2.42188 5.92465C2.39122 5.96308 2.37299 6.0084 2.36921 6.05558C2.36543 6.10276 2.37624 6.14996 2.40046 6.19195C2.42468 6.23394 2.46134 6.26906 2.5064 6.29344ZM6.11109 12.5044C6.14546 12.5176 6.18254 12.5243 6.21994 12.5239C6.29407 12.5239 6.36821 12.4982 6.43094 12.4469C6.53929 12.3443 6.53929 12.1852 6.43094 12.0825C5.99183 11.6823 5.7409 11.4308 5.37592 10.8407C5.02805 10.2865 4.84556 9.60399 4.84556 8.86505C4.84556 7.62321 6.03745 6.61228 7.50307 6.61228C8.96868 6.61228 10.1606 7.62321 10.1606 8.86505C10.1606 9.00873 10.286 9.12163 10.4457 9.12163C10.6054 9.12163 10.7308 9.00873 10.7308 8.86505C10.7308 7.34097 9.28234 6.09913 7.50307 6.09913C5.72379 6.09913 4.27528 7.34097 4.27528 8.86505C4.27528 9.69123 4.48059 10.461 4.87408 11.0922C5.25617 11.7131 5.5242 12.0004 6.02034 12.4469C6.0458 12.4715 6.07671 12.4911 6.11109 12.5044ZM8.54097 11.1178C9.03141 11.4206 9.63021 11.5745 10.3088 11.5745C10.3887 11.5745 10.6738 11.5694 10.9989 11.5129C11.1586 11.4873 11.2612 11.3539 11.2327 11.2153C11.2042 11.0716 11.0559 10.9793 10.9019 11.0049C10.6738 11.0408 10.4457 11.0562 10.3088 11.0562C9.73856 11.0562 9.26523 10.9382 8.86033 10.6919C8.16459 10.2711 7.75399 9.5886 7.75399 8.86505C7.75399 8.72136 7.62853 8.60847 7.46885 8.60847C7.30917 8.60847 7.18371 8.72136 7.18371 8.86505C7.18371 9.75794 7.69126 10.5995 8.54097 11.1178ZM9.08844 12.6214C9.11125 12.6265 9.13977 12.6316 9.16258 12.6316C9.28234 12.6316 9.4021 12.5547 9.43061 12.4366C9.47053 12.3032 9.38499 12.1595 9.23101 12.1236C8.42692 11.9235 7.90796 11.6566 7.3662 11.1743C6.67616 10.5585 6.29978 9.73742 6.29978 8.85992C6.29978 8.31084 6.83014 7.86439 7.48596 7.86439C8.14178 7.86439 8.67214 8.31084 8.67214 8.85992C8.67214 9.69123 9.45912 10.3686 10.4286 10.3686C11.3981 10.3686 12.1851 9.69123 12.1851 8.85992C12.1851 6.64307 10.075 4.84189 7.48025 4.84189C5.63825 4.84189 3.95593 5.77071 3.19746 7.20242C2.94083 7.68992 2.80967 8.24926 2.80967 8.86505C2.8101 9.55955 2.95118 10.2482 3.22597 10.8972C3.2773 11.0254 3.44268 11.0973 3.59095 11.046C3.73922 10.9998 3.81336 10.851 3.75633 10.7175C3.41416 9.89649 3.37424 9.26531 3.37424 8.86505C3.37424 8.33136 3.4883 7.84386 3.71071 7.42821C4.37793 6.17097 5.86066 5.36018 7.48025 5.36018C9.76137 5.36018 11.6148 6.93044 11.6148 8.86505C11.6148 9.41413 11.0844 9.86057 10.4286 9.86057C9.77278 9.86057 9.24242 9.41413 9.24242 8.86505C9.24242 8.03373 8.45543 7.35636 7.48596 7.35636C6.51648 7.35636 5.7295 8.03373 5.7295 8.86505C5.7274 9.36316 5.83577 9.85665 6.04826 10.3166C6.26076 10.7766 6.5731 11.1937 6.967 11.5437C7.58861 12.0928 8.1817 12.3956 9.08844 12.6214Z" fill="#07003B"/>
</svg>
