<svg width="16" height="12" viewBox="0 0 16 12" fill="none" xmlns="http://www.w3.org/2000/svg">
<path fill-rule="evenodd" clip-rule="evenodd" d="M0 3C0 1.34314 1.34314 0 3 0H13C14.6569 0 16 1.34314 16 3V9C16 10.6569 14.6569 12 13 12H3C1.34314 12 0 10.6569 0 9V3ZM6.83838 4.76062L5.33948 4.53247L4.66943 3.10999C4.65112 3.07104 4.62109 3.03955 4.58386 3.02039C4.4906 2.97217 4.3772 3.01233 4.33057 3.10999L3.66052 4.53247L2.16162 4.76062C2.12036 4.76685 2.08252 4.78723 2.05359 4.81812C2.01868 4.85583 1.99939 4.90637 2 4.95898C2.00073 5.01147 2.02124 5.06152 2.05713 5.09814L3.1416 6.20532L2.88538 7.7688C2.88232 7.78723 2.88184 7.80591 2.88379 7.82434C2.88574 7.84229 2.88989 7.85999 2.89648 7.87683C2.90979 7.91101 2.93188 7.94055 2.96045 7.96228C2.98889 7.98401 3.02271 7.99683 3.05786 7.99951C3.07971 8.0011 3.10156 7.99878 3.12244 7.99255C3.13513 7.98877 3.14746 7.98364 3.1593 7.97717L4.5 7.23901L5.8407 7.97717C5.85779 7.98669 5.8761 7.99329 5.8949 7.99683C5.90369 7.99841 5.9126 7.99939 5.92151 7.99976C5.93457 8.00024 5.94763 7.99939 5.96057 7.99695C6.06323 7.97839 6.13232 7.87634 6.11462 7.7688L5.8584 6.20532L6.94287 5.09814C6.97241 5.06787 6.99194 5.02832 6.9978 4.98511C7.01367 4.87683 6.94165 4.77673 6.83838 4.76062ZM10.5 7C10.2239 7 10 7.22388 10 7.5C10 7.77612 10.2239 8 10.5 8H13.5C13.7761 8 14 7.77612 14 7.5C14 7.22388 13.7761 7 13.5 7H10.5Z" fill="#07003B"/>
</svg>
