<svg width="16" height="12" viewBox="0 0 16 12" fill="none" xmlns="http://www.w3.org/2000/svg">
<path fill-rule="evenodd" clip-rule="evenodd" d="M0 3C0 1.34315 1.34315 0 3 0H13C14.6569 0 16 1.34315 16 3V9C16 10.6569 14.6569 12 13 12H3C1.34315 12 0 10.6569 0 9V3ZM6.83839 4.76064L5.33949 4.53253L4.66944 3.11004C4.65114 3.0711 4.62103 3.03957 4.58384 3.0204C4.49057 2.97218 4.37722 3.01237 4.33058 3.11004L3.66053 4.53253L2.16163 4.76064C2.1203 4.76682 2.08252 4.78722 2.05359 4.81814C2.01862 4.85578 1.99935 4.90641 2.00002 4.95893C2.00068 5.01144 2.02123 5.06152 2.05714 5.09818L3.14161 6.20538L2.8854 7.76881C2.87939 7.80518 2.88324 7.84259 2.89649 7.87679C2.90975 7.91098 2.9319 7.94061 2.96042 7.9623C2.98893 7.98399 3.02268 7.99687 3.05784 7.9995C3.093 8.00212 3.12815 7.99438 3.15932 7.97715L4.50001 7.23902L5.8407 7.97715C5.8773 7.99755 5.91981 8.00435 5.96054 7.99693C6.06326 7.97838 6.13233 7.87638 6.11462 7.76881L5.85841 6.20538L6.94289 5.09818C6.9724 5.06789 6.99189 5.02832 6.99779 4.98505C7.01373 4.87686 6.94171 4.77672 6.83839 4.76064ZM10.5 7C10.2239 7 10 7.22386 10 7.5C10 7.77614 10.2239 8 10.5 8H13.5C13.7761 8 14 7.77614 14 7.5C14 7.22386 13.7761 7 13.5 7H10.5Z" fill="white"/>
</svg>
