<svg width="567" height="564" viewBox="0 0 567 564" fill="none" xmlns="http://www.w3.org/2000/svg">
<path d="M500.926 484.148C489.291 496.234 478.282 504.028 469.585 510.188C367.343 582.575 246.366 561.467 220.655 556.32C182.688 548.712 109.298 534.003 56.2399 472.433C-24.0351 379.273 -11.5341 232.526 50.7238 135.649C62.1135 117.931 122.275 19.5793 244.556 3.80543C318.557 -5.73939 404.822 13.5116 467.29 65.1562C598.428 173.561 589.093 392.559 500.926 484.148Z" fill="#E4EBFE"/>
<path d="M539.992 201.54C539.992 202.706 539.945 203.867 539.843 205.013C538.799 217.596 532.09 228.903 522.128 236.319C514.916 241.7 506.27 244.82 497.284 245.286C472.686 246.581 452.187 228.043 452.187 203.846C452.187 191.345 457.66 180.066 466.347 172.084C467.668 170.865 469.062 169.727 470.523 168.678C478.312 163.055 487.678 160.032 497.286 160.041C521.152 160.041 539.992 178.619 539.992 201.54Z" fill="url(#paint0_linear_104_2)"/>
<path d="M539.51 96.4179C539.51 97.5845 539.461 98.7449 539.359 99.891C538.315 112.474 531.608 123.78 521.646 131.196C514.432 136.578 505.782 139.699 496.793 140.162C472.194 141.46 451.696 122.92 451.696 98.7224C451.696 86.2235 457.169 74.9441 465.854 66.9602C467.177 65.7424 468.571 64.6051 470.03 63.5545C477.821 57.9321 487.186 54.9095 496.793 54.9168C520.669 54.9168 539.51 73.4977 539.51 96.4179Z" fill="url(#paint1_linear_104_2)"/>
<path d="M440.611 205.327H440.59L436.504 205.27C436.142 205.265 435.797 205.116 435.545 204.857C435.293 204.597 435.154 204.248 435.159 203.886C435.164 203.524 435.313 203.179 435.572 202.927C435.832 202.675 436.181 202.536 436.543 202.541L440.629 202.598C440.991 202.6 441.337 202.747 441.591 203.004C441.846 203.262 441.987 203.61 441.985 203.972C441.982 204.334 441.836 204.68 441.578 204.934C441.321 205.188 440.973 205.33 440.611 205.327V205.327Z" fill="white"/>
<path d="M428.514 205.158H428.494L420.502 205.048C420.14 205.045 419.794 204.899 419.539 204.641C419.285 204.384 419.144 204.036 419.146 203.674C419.149 203.312 419.295 202.966 419.552 202.711C419.81 202.457 420.158 202.316 420.52 202.318H420.541L428.533 202.431C428.885 202.446 429.218 202.598 429.461 202.854C429.704 203.11 429.839 203.45 429.836 203.803C429.834 204.156 429.695 204.494 429.448 204.747C429.202 205 428.867 205.147 428.514 205.158ZM412.528 204.935H412.508L404.515 204.823C404.336 204.821 404.159 204.783 403.994 204.712C403.83 204.641 403.681 204.538 403.556 204.409C403.431 204.281 403.333 204.129 403.267 203.962C403.201 203.795 403.168 203.617 403.171 203.438C403.184 203.079 403.335 202.738 403.593 202.488C403.85 202.237 404.195 202.096 404.554 202.094L412.546 202.206C412.908 202.208 413.255 202.354 413.509 202.612C413.763 202.87 413.904 203.218 413.902 203.58C413.899 203.942 413.753 204.288 413.496 204.542C413.238 204.796 412.89 204.938 412.528 204.935V204.935ZM396.544 204.711H396.523L388.531 204.598C388.352 204.596 388.175 204.559 388.01 204.488C387.846 204.417 387.696 204.315 387.572 204.186C387.447 204.057 387.348 203.906 387.282 203.739C387.216 203.572 387.184 203.394 387.187 203.215C387.197 202.855 387.347 202.513 387.605 202.261C387.863 202.01 388.21 201.869 388.57 201.869L396.562 201.981C396.924 201.984 397.27 202.13 397.524 202.387C397.779 202.645 397.92 202.993 397.918 203.355C397.915 203.717 397.769 204.063 397.511 204.317C397.254 204.572 396.906 204.713 396.544 204.711Z" fill="white"/>
<path d="M380.56 204.486H380.539L376.453 204.429C376.091 204.423 375.746 204.275 375.494 204.015C375.242 203.756 375.103 203.406 375.108 203.044C375.113 202.682 375.262 202.337 375.521 202.085C375.781 201.833 376.13 201.694 376.492 201.699L380.578 201.756C380.94 201.759 381.286 201.905 381.54 202.163C381.794 202.42 381.936 202.768 381.933 203.13C381.931 203.492 381.785 203.838 381.527 204.093C381.27 204.347 380.921 204.488 380.56 204.486V204.486Z" fill="white"/>
<path d="M64.6712 175.984C64.6687 176.672 64.4622 177.343 64.0777 177.913C63.6933 178.483 63.1482 178.927 62.5116 179.187C61.8749 179.447 61.1754 179.512 60.5017 179.374C59.828 179.236 59.2104 178.901 58.7271 178.412C58.2439 177.923 57.9168 177.301 57.7872 176.626C57.6577 175.95 57.7316 175.252 57.9995 174.618C58.2674 173.985 58.7173 173.446 59.2922 173.068C59.8671 172.691 60.5411 172.493 61.2288 172.499C62.1467 172.507 63.0241 172.878 63.6691 173.531C64.3142 174.184 64.6745 175.066 64.6712 175.984Z" fill="#91B3FA"/>
<path d="M64.5569 175.984C64.5528 176.647 64.3523 177.293 63.9807 177.842C63.6091 178.391 63.0831 178.817 62.4692 179.067C61.8553 179.317 61.1812 179.379 60.532 179.245C59.8828 179.112 59.2878 178.789 58.8221 178.317C58.3565 177.846 58.0412 177.247 57.9161 176.596C57.7911 175.945 57.8618 175.272 58.1194 174.661C58.3771 174.05 58.81 173.53 59.3635 173.165C59.9169 172.801 60.5661 172.609 61.2288 172.613C61.6687 172.616 62.1038 172.705 62.5092 172.876C62.9145 173.047 63.2822 173.296 63.5913 173.609C63.9004 173.922 64.1447 174.293 64.3104 174.7C64.4761 175.108 64.5598 175.544 64.5569 175.984V175.984Z" fill="#91B3FA"/>
<path d="M64.6712 196.986C64.6679 197.673 64.4607 198.344 64.0757 198.914C63.6908 199.484 63.1454 199.926 62.5087 200.186C61.8721 200.445 61.1727 200.51 60.4993 200.371C59.8258 200.233 59.2086 199.898 58.7257 199.409C58.2429 198.919 57.9162 198.297 57.787 197.622C57.6578 196.947 57.7319 196.248 57.9999 195.615C58.268 194.982 58.7179 194.443 59.2927 194.066C59.8675 193.689 60.5413 193.49 61.2288 193.497C62.1474 193.505 63.0254 193.876 63.6706 194.53C64.3158 195.184 64.6756 196.067 64.6712 196.986V196.986Z" fill="#91B3FA"/>
<path d="M64.5566 196.986C64.5526 197.649 64.3521 198.295 63.9805 198.844C63.6089 199.393 63.0829 199.819 62.469 200.069C61.8551 200.319 61.1809 200.381 60.5318 200.247C59.8826 200.114 59.2876 199.791 58.8219 199.319C58.3563 198.848 58.041 198.249 57.9159 197.598C57.7908 196.947 57.8616 196.274 58.1192 195.663C58.3768 195.052 58.8098 194.532 59.3633 194.167C59.9167 193.803 60.5659 193.611 61.2286 193.615C61.6685 193.618 62.1036 193.707 62.509 193.878C62.9143 194.049 63.282 194.298 63.5911 194.611C63.9002 194.924 64.1445 195.295 64.3102 195.702C64.4759 196.11 64.5596 196.546 64.5566 196.986V196.986Z" fill="#91B3FA"/>
<path d="M64.6712 217.984C64.6684 218.671 64.4615 219.343 64.0768 219.913C63.692 220.482 63.1468 220.925 62.5102 221.185C61.8735 221.445 61.1741 221.51 60.5005 221.372C59.8269 221.233 59.2095 220.899 58.7265 220.409C58.2434 219.92 57.9165 219.298 57.7871 218.623C57.6578 217.947 57.7317 217.249 57.9997 216.616C58.2677 215.982 58.7176 215.443 59.2925 215.066C59.8673 214.688 60.5412 214.49 61.2288 214.496C62.1471 214.504 63.0248 214.876 63.6699 215.529C64.315 216.183 64.675 217.065 64.6712 217.984V217.984Z" fill="#91B3FA"/>
<path d="M64.5566 217.982C64.5526 218.644 64.3521 219.291 63.9805 219.84C63.6089 220.389 63.0829 220.815 62.469 221.065C61.8551 221.314 61.1809 221.377 60.5318 221.243C59.8826 221.11 59.2876 220.787 58.8219 220.315C58.3563 219.844 58.041 219.244 57.9159 218.594C57.7908 217.943 57.8616 217.269 58.1192 216.659C58.3768 216.048 58.8098 215.528 59.3633 215.163C59.9167 214.799 60.5659 214.606 61.2286 214.611C62.1167 214.617 62.9659 214.976 63.5899 215.608C64.2138 216.24 64.5615 217.094 64.5566 217.982V217.982Z" fill="#91B3FA"/>
<path d="M69.9994 175.804L70.0158 176.395C70.0587 177.992 71.0577 179.255 72.2753 179.255L165.053 179.396C166.312 179.396 167.333 178.064 167.331 176.415C167.331 174.797 166.342 173.477 165.106 173.445L72.3141 172.713C71.0107 172.689 69.9545 174.105 69.9994 175.804Z" fill="white"/>
<path d="M69.9994 196.702L70.0158 197.29C70.0587 198.888 71.0577 200.15 72.2753 200.15L165.053 200.291C166.312 200.291 167.333 198.961 167.331 197.311C167.331 195.693 166.342 194.373 165.106 194.34L72.3141 193.611C71.0107 193.586 69.9545 194.994 69.9994 196.702Z" fill="white"/>
<path d="M69.9994 217.598L70.0158 218.188C70.0587 219.786 71.0577 221.048 72.2753 221.048L165.053 221.189C166.312 221.189 167.333 219.857 167.331 218.208C167.331 216.588 166.342 215.271 165.106 215.238L72.3141 214.507C71.0107 214.482 69.9545 215.89 69.9994 217.598Z" fill="white"/>
<path d="M540.807 311.44C540.807 312.606 540.758 313.767 540.656 314.913C539.612 327.496 532.905 338.804 522.941 346.22C515.73 351.6 507.084 354.721 498.099 355.186C473.499 356.482 453.002 337.944 453.002 313.746C453.002 301.245 458.473 289.966 467.16 281.984C468.481 280.765 469.876 279.628 471.335 278.579C479.125 272.955 488.491 269.931 498.099 269.939C521.967 269.939 540.807 288.512 540.807 311.44Z" fill="url(#paint2_linear_104_2)"/>
<path d="M521.472 415.994C517.298 403.225 509.95 391.874 500.319 382.675C488.141 371.042 472.312 362.858 454.638 359.589C454.638 359.589 431.699 355.624 406.532 349.139C398.309 347.023 389.51 348.796 382.915 353.865C365.331 367.375 332.314 384.965 280.449 383.778C233.46 382.703 206.464 368.642 191.826 356.537C185.015 350.904 175.632 348.902 166.914 351.293C147.965 356.49 132.204 359.589 132.204 359.589C100.556 365.428 60.3173 387.071 50.8644 415.994C41.8079 443.697 32.5654 489.319 31.5786 527.498C31.2211 541.38 43.0541 552.831 57.8637 552.831H514.471C529.28 552.831 541.113 541.372 540.756 527.498C539.771 489.314 530.529 443.693 521.472 415.994Z" fill="url(#paint3_linear_104_2)"/>
<path d="M280.441 386.136C344.386 387.694 389.23 362.028 402.268 348.398C376.341 340.363 342.478 326.579 342.073 315.148L338.169 205.031H235.178L231.274 315.148C230.841 327.349 191.369 343.284 166.92 351.489C177.37 364.848 219.836 384.656 280.441 386.136Z" fill="url(#paint4_linear_104_2)"/>
<path d="M196.344 107.393C196.344 107.393 211.166 267.953 254.452 285.21C254.452 285.21 289.577 300.338 318.917 283.222C318.917 283.222 367.313 239.177 363.834 108.614C363.834 108.614 367.84 32.9648 284.362 26.7051C186.564 19.3687 196.344 107.393 196.344 107.393Z" fill="url(#paint5_linear_104_2)"/>
<path d="M355.278 163.845C355.278 163.845 362.612 141.838 374.837 141.838C387.063 141.838 372.386 200.522 355.278 200.522V163.845Z" fill="url(#paint6_linear_104_2)"/>
<path d="M212.41 158.825C212.41 158.825 202.325 140.189 190.21 141.838C178.096 143.486 195.451 202.718 212.41 200.42V158.825Z" fill="url(#paint7_linear_104_2)"/>
<path d="M209.684 148.042C208.573 148.536 207.373 148.795 206.157 148.805C204.941 148.814 203.737 148.574 202.618 148.098C201.5 147.622 200.491 146.921 199.654 146.039C198.818 145.157 198.172 144.112 197.757 142.969C194.672 134.475 189.935 121.563 186.098 111.695C179.848 95.6293 146.824 75.0994 181.634 34.9343C216.444 -5.23078 236.159 38.3604 259.329 26.8277C282.498 15.2951 310.168 -11.4803 334.267 5.47855C358.366 22.4374 342.3 38.5034 350.333 42.9673C358.367 47.4312 370.863 24.2229 379.789 55.4622C386.695 79.6348 375.446 124.133 370.001 143.035C369.692 144.11 369.146 145.101 368.403 145.937C367.66 146.773 366.739 147.432 365.708 147.864C364.676 148.297 363.561 148.493 362.444 148.437C361.327 148.382 360.237 148.076 359.253 147.544V147.544C358.162 146.954 357.236 146.102 356.556 145.065C355.877 144.028 355.466 142.838 355.361 141.603C354.748 134.479 353.339 118.699 351.226 100.986C348.352 76.8788 326.351 110.278 283.448 115.003C240.546 119.728 244.117 96.5221 223.589 96.5221C214.926 96.5221 214.665 126.734 214.953 139.756C214.99 141.502 214.51 143.221 213.573 144.696C212.636 146.17 211.284 147.334 209.686 148.042H209.684Z" fill="url(#paint8_linear_104_2)"/>
<path d="M197.022 125.61C197.11 125.547 197.194 125.479 197.273 125.406C197.457 125.219 197.597 124.994 197.682 124.746C197.935 124.06 197.886 122.836 197.371 121.373C196.82 119.546 196.145 117.758 195.351 116.022C194.328 113.766 193.179 111.569 191.908 109.442C190.548 107.074 188.981 104.555 187.316 101.883C185.651 99.2107 183.912 96.3403 182.313 93.239C180.713 90.1378 179.26 86.7505 178.376 83.1896C177.457 79.5345 177.025 75.7744 177.089 72.0063C177.189 68.2486 177.76 64.5184 178.788 60.9027C179.793 57.3966 181.268 54.0428 183.173 50.9329C184.949 48.0252 187.092 45.3577 189.549 42.9959C191.738 40.8871 194.156 39.0288 196.756 37.4554C198.947 36.1375 201.25 35.0176 203.639 34.1089L205.2 33.5635C205.703 33.3959 206.201 33.2672 206.671 33.1263C207.609 32.83 208.497 32.6564 209.288 32.4684C210.516 32.1942 211.759 31.995 213.01 31.8719L214.336 31.7391C214.422 31.7328 214.507 31.7589 214.574 31.8123C214.641 31.8656 214.685 31.9423 214.699 32.0271C214.712 32.1118 214.693 32.1984 214.645 32.2696C214.597 32.3408 214.524 32.3913 214.441 32.4112H214.418L213.137 32.6748C212.729 32.7606 212.206 32.8546 211.611 33.0241C211.016 33.1937 210.322 33.3183 209.568 33.5675C208.814 33.8168 207.97 34.0415 207.086 34.397C206.642 34.5686 206.175 34.728 205.701 34.9261L204.24 35.5635C202.007 36.5726 199.861 37.7636 197.823 39.1245C195.421 40.7266 193.19 42.5709 191.165 44.6283C186.487 49.3716 183.064 55.2047 181.203 61.6014C180.217 65.006 179.661 68.5207 179.548 72.0635C179.462 75.5976 179.821 79.1286 180.619 82.5726C180.823 83.4082 181.095 84.3378 181.318 85.1223C181.606 85.9395 181.869 86.771 182.174 87.5739C182.478 88.3767 182.787 89.1837 183.14 89.9662C183.493 90.7486 183.826 91.5311 184.202 92.2911C185.671 95.3413 187.314 98.2158 188.901 100.931C190.489 103.646 192.002 106.228 193.302 108.676C194.498 110.902 195.568 113.193 196.505 115.54C197.236 117.349 197.844 119.206 198.323 121.097C198.789 122.683 198.795 124.113 198.397 125.03C198.245 125.393 198.006 125.713 197.702 125.964C197.61 126.037 197.513 126.106 197.412 126.168C197.338 126.216 197.248 126.233 197.162 126.216C197.075 126.2 196.998 126.15 196.948 126.078C196.897 126.006 196.876 125.917 196.89 125.829C196.903 125.742 196.95 125.664 197.02 125.61H197.022Z" fill="#91B3FA"/>
<path d="M201.396 127.32H201.33C201.286 127.312 201.243 127.295 201.204 127.269C201.166 127.244 201.134 127.211 201.109 127.173C201.083 127.135 201.066 127.092 201.058 127.047C201.05 127.002 201.051 126.956 201.061 126.911C202.912 117.205 198.101 107.891 193.445 98.8858C188.934 90.1562 184.27 81.1282 185.43 71.5507C187.064 58.1079 199.541 48.892 208.787 43.1287C208.864 43.0845 208.955 43.0717 209.04 43.0931C209.126 43.1145 209.2 43.1683 209.247 43.2432C209.294 43.3182 209.31 43.4084 209.292 43.4949C209.273 43.5814 209.222 43.6574 209.149 43.7069C200.019 49.3966 187.698 58.4817 186.106 71.6324C184.972 81.0015 189.579 89.9335 194.051 98.5733C198.75 107.681 203.627 117.101 201.731 127.038C201.716 127.117 201.675 127.188 201.614 127.239C201.553 127.29 201.476 127.319 201.396 127.32Z" fill="#91B3FA"/>
<path d="M264.034 92.6915L264.161 93.047C264.252 93.2738 264.353 93.6477 264.551 94.0685C265.104 95.2913 265.847 96.4187 266.753 97.4088C267.398 98.1219 268.112 98.7699 268.884 99.3435C269.8 100.012 270.781 100.588 271.811 101.062C274.28 102.198 276.97 102.775 279.687 102.753C282.699 102.753 285.912 102.083 289.15 100.855C292.388 99.6275 295.647 97.893 298.897 95.8929C300.552 94.8877 302.187 93.8499 303.841 92.7814C305.496 91.7129 307.159 90.5873 308.828 89.4493C312.171 87.1755 315.554 84.824 319.015 82.5645C322.475 80.3049 326.02 78.1312 329.677 76.2455C333.334 74.3598 337.064 72.7724 340.84 71.6754C341.773 71.373 342.734 71.181 343.665 70.9317C344.597 70.6825 345.526 70.4966 346.485 70.3352C348.341 70.0094 350.228 69.8902 352.111 69.9797C353.933 70.0673 355.725 70.471 357.408 71.1728C357.617 71.2533 357.822 71.3447 358.021 71.4465L358.315 71.5957L358.463 71.6692L358.536 71.706L358.573 71.7244L358.649 71.7693L359.67 72.4149C360.024 72.6564 360.365 72.9163 360.692 73.1933C361.024 73.4497 361.334 73.7333 361.619 74.0411C362.183 74.6042 362.703 75.21 363.174 75.8533C363.606 76.4707 364.001 77.1141 364.355 77.7798C364.69 78.4048 364.993 79.0464 365.264 79.7022C365.503 80.3437 365.738 80.9689 365.922 81.5838C366.542 83.6946 366.981 85.8543 367.235 88.0397C367.468 89.8416 367.54 91.2635 367.601 92.2298C367.662 93.1962 367.67 93.711 367.67 93.711C367.671 93.7971 367.639 93.8803 367.581 93.9439C367.523 94.0074 367.443 94.0466 367.357 94.0536C367.271 94.0606 367.186 94.0348 367.118 93.9815C367.05 93.9282 367.005 93.8513 366.992 93.7661C366.992 93.7661 366.937 93.2554 366.829 92.2993C366.72 91.3432 366.543 89.9478 366.24 88.1908C365.896 86.0879 365.372 84.0183 364.675 82.0047C364.246 80.7893 363.71 79.6141 363.074 78.4928C362.733 77.8947 362.357 77.3175 361.948 76.7644C361.512 76.2028 361.034 75.6756 360.518 75.1872C360.267 74.9287 359.993 74.6929 359.701 74.4824C359.417 74.2513 359.12 74.0364 358.812 73.8389L357.766 73.226L357.29 73.0053C357.116 72.9208 356.938 72.8458 356.757 72.7806C355.245 72.2045 353.645 71.8948 352.027 71.8654C350.283 71.8191 348.54 71.9602 346.826 72.2862C345.955 72.4456 345.036 72.6417 344.149 72.8991C343.263 73.1565 342.339 73.3465 341.443 73.653C337.818 74.7439 334.202 76.3088 330.654 78.1475C327.105 79.9862 323.595 82.0762 320.155 84.2928C316.714 86.5095 313.321 88.8283 309.952 91.0878C308.269 92.2169 306.589 93.3235 304.912 94.4076C303.22 95.4782 301.545 96.5405 299.876 97.4925C296.521 99.464 293.134 101.186 289.73 102.396C286.327 103.605 282.889 104.253 279.72 104.187C276.803 104.131 273.936 103.421 271.331 102.108C270.248 101.566 269.222 100.918 268.267 100.173C267.465 99.5321 266.726 98.8151 266.063 98.0319C265.128 96.9277 264.382 95.6778 263.852 94.3321C263.662 93.8683 263.586 93.5149 263.503 93.2779C263.419 93.0409 263.392 92.9183 263.392 92.9183C263.379 92.8755 263.374 92.8305 263.378 92.7858C263.382 92.7411 263.395 92.6976 263.416 92.6579C263.436 92.6182 263.465 92.583 263.5 92.5544C263.534 92.5258 263.574 92.5044 263.617 92.4913C263.699 92.4668 263.787 92.4737 263.864 92.5107C263.941 92.5478 264.002 92.6122 264.034 92.6915V92.6915Z" fill="#91B3FA"/>
<path d="M256.299 236.174C274.524 260.096 292.413 256.97 315.517 236.174C296.877 240.052 274.939 241.284 256.299 236.174Z" fill="white"/>
<path d="M298.717 147.511C298.717 147.964 298.823 148.41 299.029 148.813C299.234 149.217 299.533 149.566 299.899 149.831C300.266 150.097 300.69 150.272 301.138 150.342C301.585 150.411 302.042 150.374 302.472 150.232C311.437 147.251 334.649 141.233 352.191 151.599C352.191 151.599 342.384 129.05 300.554 144.837C300.013 145.044 299.548 145.411 299.22 145.888C298.892 146.366 298.717 146.932 298.717 147.511V147.511Z" fill="url(#paint9_linear_104_2)"/>
<path d="M268.614 147.511C268.615 147.963 268.508 148.41 268.303 148.813C268.097 149.216 267.799 149.565 267.433 149.83C267.067 150.096 266.642 150.271 266.195 150.341C265.748 150.411 265.291 150.373 264.861 150.232C255.896 147.251 232.684 141.233 215.143 151.599C215.143 151.599 224.949 129.05 266.779 144.837C267.32 145.044 267.785 145.411 268.112 145.889C268.44 146.366 268.615 146.932 268.614 147.511V147.511Z" fill="url(#paint10_linear_104_2)"/>
<path d="M198.733 114.496C198.284 114.496 197.841 114.408 197.427 114.237C197.013 114.065 196.637 113.814 196.32 113.497C196.003 113.18 195.752 112.804 195.58 112.39C195.409 111.976 195.321 111.533 195.321 111.085V86.4482C195.324 83.2984 196.577 80.2786 198.804 78.0514C201.031 75.8242 204.051 74.5715 207.201 74.5682H224.26C225.164 74.5682 226.032 74.9277 226.672 75.5675C227.312 76.2074 227.671 77.0752 227.671 77.98C227.671 78.8849 227.312 79.7527 226.672 80.3925C226.032 81.0324 225.164 81.3918 224.26 81.3918H207.201C205.86 81.3929 204.574 81.926 203.626 82.874C202.678 83.822 202.145 85.1075 202.144 86.4482V111.085C202.144 111.533 202.056 111.976 201.885 112.39C201.713 112.804 201.462 113.18 201.145 113.497C200.828 113.814 200.452 114.065 200.038 114.237C199.624 114.408 199.181 114.496 198.733 114.496V114.496Z" fill="white"/>
<path d="M364.022 114.496C363.574 114.496 363.13 114.408 362.716 114.237C362.302 114.065 361.926 113.814 361.609 113.497C361.292 113.18 361.041 112.804 360.87 112.39C360.698 111.976 360.61 111.533 360.61 111.085V86.4482C360.609 85.1075 360.076 83.8221 359.128 82.874C358.18 81.926 356.894 81.3929 355.553 81.3919H338.505C337.6 81.3919 336.732 81.0324 336.092 80.3926C335.452 79.7527 335.093 78.8849 335.093 77.9801C335.093 77.0752 335.452 76.2074 336.092 75.5676C336.732 74.9277 337.6 74.5683 338.505 74.5683H355.553C358.703 74.5715 361.723 75.8242 363.95 78.0514C366.177 80.2787 367.43 83.2985 367.433 86.4482V111.085C367.433 111.533 367.345 111.976 367.174 112.39C367.002 112.804 366.751 113.18 366.434 113.497C366.117 113.814 365.741 114.065 365.327 114.237C364.913 114.408 364.47 114.496 364.022 114.496V114.496Z" fill="white"/>
<path d="M224.259 309.44H207.2C204.051 309.437 201.031 308.184 198.804 305.958C196.577 303.731 195.324 300.712 195.32 297.562V272.926C195.32 272.021 195.68 271.153 196.319 270.513C196.959 269.873 197.827 269.514 198.732 269.514C199.637 269.514 200.505 269.873 201.144 270.513C201.784 271.153 202.144 272.021 202.144 272.926V297.562C202.145 298.903 202.679 300.188 203.626 301.136C204.574 302.084 205.859 302.617 207.2 302.619H224.259C224.714 302.607 225.166 302.687 225.59 302.854C226.014 303.02 226.4 303.27 226.725 303.587C227.051 303.905 227.31 304.285 227.486 304.704C227.663 305.124 227.754 305.574 227.754 306.029C227.754 306.484 227.663 306.935 227.486 307.354C227.31 307.774 227.051 308.153 226.725 308.471C226.4 308.789 226.014 309.038 225.59 309.205C225.166 309.371 224.714 309.451 224.259 309.44V309.44Z" fill="white"/>
<path d="M355.553 309.44H338.505C338.05 309.451 337.597 309.371 337.174 309.205C336.75 309.038 336.364 308.789 336.038 308.471C335.713 308.153 335.454 307.773 335.277 307.354C335.1 306.935 335.009 306.484 335.009 306.029C335.009 305.574 335.1 305.124 335.277 304.704C335.454 304.285 335.713 303.905 336.038 303.587C336.364 303.27 336.75 303.02 337.174 302.854C337.597 302.687 338.05 302.607 338.505 302.618H355.553C356.894 302.617 358.179 302.084 359.127 301.136C360.075 300.188 360.608 298.903 360.61 297.562V272.926C360.61 272.021 360.969 271.153 361.609 270.513C362.249 269.873 363.117 269.514 364.022 269.514C364.926 269.514 365.794 269.873 366.434 270.513C367.074 271.153 367.433 272.021 367.433 272.926V297.562C367.43 300.711 366.177 303.731 363.949 305.958C361.722 308.184 358.703 309.437 355.553 309.44V309.44Z" fill="white"/>
<path d="M351.051 298.059H211.472C210.147 298.057 208.876 297.53 207.939 296.593C207.002 295.655 206.474 294.385 206.473 293.059V90.3423C206.474 89.0169 207.002 87.7463 207.939 86.8091C208.876 85.8719 210.147 85.3447 211.472 85.3431H351.051C352.376 85.3447 353.647 85.8719 354.584 86.8091C355.521 87.7463 356.048 89.0169 356.05 90.3423V293.064C356.047 294.388 355.52 295.658 354.582 296.594C353.645 297.53 352.375 298.057 351.051 298.059ZM211.472 87.3861C210.69 87.3893 209.941 87.7022 209.39 88.2562C208.838 88.8103 208.528 89.5603 208.528 90.3423V293.064C208.53 293.846 208.841 294.596 209.395 295.149C209.948 295.702 210.698 296.014 211.48 296.016H351.059C351.842 296.015 352.592 295.703 353.145 295.15C353.699 294.596 354.01 293.846 354.011 293.064V90.3423C354.011 89.5595 353.699 88.8089 353.146 88.2554C352.592 87.7019 351.842 87.3907 351.059 87.3901L211.472 87.3861Z" fill="white"/>
<path fill-rule="evenodd" clip-rule="evenodd" d="M518.609 106.029C519.377 106.029 520 106.652 520 107.42V114.014C520 116.132 519.159 118.163 517.661 119.661C516.164 121.158 514.132 122 512.015 122H505.42C504.652 122 504.029 121.377 504.029 120.608C504.029 119.84 504.652 119.217 505.42 119.217H512.015C513.394 119.217 514.718 118.669 515.694 117.693C516.669 116.718 517.217 115.394 517.217 114.014V107.42C517.217 106.652 517.84 106.029 518.609 106.029Z" fill="white"/>
<path fill-rule="evenodd" clip-rule="evenodd" d="M504.029 75.3913C504.029 74.6229 504.652 74 505.42 74H512.015C514.132 74 516.164 74.8413 517.661 76.3389C519.159 77.8364 520 79.8676 520 81.9855V88.5796C520 89.348 519.377 89.9709 518.609 89.9709C517.84 89.9709 517.217 89.348 517.217 88.5796V81.9855C517.217 80.6056 516.669 79.2822 515.694 78.3065C514.718 77.3307 513.394 76.7826 512.015 76.7826H505.42C504.652 76.7826 504.029 76.1597 504.029 75.3913Z" fill="white"/>
<path fill-rule="evenodd" clip-rule="evenodd" d="M473.391 106.029C474.16 106.029 474.783 106.652 474.783 107.42V114.014C474.783 115.394 475.331 116.718 476.307 117.693C477.282 118.669 478.606 119.217 479.986 119.217H486.58C487.348 119.217 487.971 119.84 487.971 120.608C487.971 121.377 487.348 122 486.58 122H479.986C477.868 122 475.837 121.158 474.339 119.661C472.841 118.163 472 116.132 472 114.014V107.42C472 106.652 472.623 106.029 473.391 106.029Z" fill="white"/>
<path fill-rule="evenodd" clip-rule="evenodd" d="M479.985 76.7826C478.606 76.7826 477.282 77.3308 476.306 78.3065C475.331 79.2822 474.783 80.6056 474.783 81.9855V88.5796C474.783 89.348 474.16 89.9709 473.391 89.9709C472.623 89.9709 472 89.348 472 88.5796V81.9855C472 79.8676 472.841 77.8365 474.339 76.3389C475.836 74.8413 477.868 74 479.985 74H486.58C487.348 74 487.971 74.6229 487.971 75.3913C487.971 76.1597 487.348 76.7826 486.58 76.7826H479.985Z" fill="white"/>
<path d="M479.131 99.3042C479.131 98.5839 479.715 97.9999 480.435 97.9999H511.565C512.286 97.9999 512.87 98.5839 512.87 99.3042V99.3042C512.87 100.025 512.286 100.609 511.565 100.609H480.435C479.715 100.609 479.131 100.025 479.131 99.3042V99.3042Z" fill="white"/>
<path fill-rule="evenodd" clip-rule="evenodd" d="M509.565 97.9998C509.565 90.5078 503.492 84.4346 496 84.4346C488.508 84.4346 482.435 90.5078 482.435 97.9998C482.435 98.4695 482.459 98.9337 482.505 99.3911H485.237C485.178 98.9322 485.148 98.4676 485.148 97.9998C485.148 95.1216 486.291 92.3614 488.326 90.3262C490.362 88.291 493.122 87.1477 496 87.1477C498.878 87.1477 501.638 88.291 503.674 90.3262C505.709 92.3614 506.852 95.1216 506.852 97.9998C506.852 98.4676 506.822 98.9322 506.763 99.3911H509.495C509.541 98.9337 509.565 98.4695 509.565 97.9998ZM508.966 102H506.088C505.547 103.363 504.731 104.616 503.674 105.673C501.638 107.709 498.878 108.852 496 108.852C493.122 108.852 490.362 107.709 488.326 105.673C487.269 104.616 486.453 103.363 485.912 102H483.034C484.741 107.539 489.9 111.565 496 111.565C502.1 111.565 507.259 107.539 508.966 102ZM490.52 102C490.949 102.587 491.472 103.105 492.073 103.532C493.237 104.358 494.633 104.795 496.061 104.782C497.488 104.769 498.876 104.305 500.024 103.457C500.583 103.046 501.071 102.553 501.475 102H490.52ZM502.636 99.3911C502.88 98.2283 502.814 97.0176 502.441 95.8813C501.995 94.5249 501.132 93.3438 499.976 92.5064C498.819 91.6689 497.428 91.2178 496 91.2172C495.323 91.2166 494.649 91.3172 494.002 91.5157C494.597 91.784 495.103 92.2186 495.457 92.7673C495.812 93.3159 496 93.9553 496 94.6085C496.002 95.3853 495.737 96.1393 495.25 96.7441C494.762 97.349 494.082 97.7681 493.322 97.9312C492.563 98.0944 491.77 97.9918 491.077 97.6405C490.384 97.2893 489.833 96.7107 489.516 96.0017C489.176 97.1042 489.124 98.2706 489.359 99.3911H502.636Z" fill="white"/>
<path d="M513.157 291.916C512.934 291.916 512.712 291.86 512.518 291.748C507.183 288.976 502.571 287.8 497.042 287.8C491.541 287.8 486.318 289.116 481.567 291.748C480.901 292.112 480.067 291.86 479.678 291.188C479.505 290.861 479.466 290.478 479.57 290.122C479.674 289.766 479.912 289.465 480.234 289.284C485.401 286.456 491.069 285 497.042 285C502.96 285 508.128 286.316 513.796 289.256C514.49 289.62 514.74 290.46 514.379 291.132C514.269 291.365 514.096 291.563 513.88 291.702C513.664 291.84 513.413 291.915 513.157 291.916V291.916ZM473.399 306.616C473.143 306.618 472.891 306.549 472.672 306.416C472.452 306.283 472.274 306.092 472.156 305.862C472.038 305.633 471.985 305.376 472.004 305.118C472.022 304.861 472.111 304.614 472.26 304.404C475.011 300.484 478.511 297.404 482.679 295.248C491.403 290.712 502.571 290.684 511.323 295.22C515.49 297.376 518.991 300.428 521.741 304.32C521.848 304.47 521.924 304.641 521.965 304.821C522.006 305.001 522.011 305.188 521.98 305.37C521.949 305.552 521.883 305.726 521.784 305.883C521.686 306.039 521.558 306.174 521.408 306.28C520.769 306.728 519.908 306.588 519.463 305.944C517.03 302.473 513.798 299.648 510.045 297.712C502.071 293.596 491.875 293.596 483.929 297.74C480.151 299.7 476.983 302.5 474.483 306.028C474.261 306.42 473.844 306.616 473.399 306.616V306.616ZM490.764 340.412C490.581 340.414 490.401 340.378 490.233 340.306C490.066 340.233 489.915 340.127 489.791 339.992C487.374 337.556 486.068 335.988 484.207 332.6C482.29 329.156 481.29 324.956 481.29 320.448C481.29 312.132 488.346 305.356 497.015 305.356C505.683 305.356 512.74 312.132 512.74 320.448C512.74 321.232 512.129 321.848 511.351 321.848C510.573 321.848 509.962 321.232 509.962 320.448C509.962 313.672 504.155 308.156 497.015 308.156C489.875 308.156 484.068 313.672 484.068 320.448C484.068 324.48 484.957 328.204 486.652 331.228C488.43 334.448 489.652 335.82 491.792 338.004C492.319 338.564 492.319 339.432 491.792 339.992C491.486 340.272 491.125 340.412 490.764 340.412ZM510.684 335.232C507.378 335.232 504.461 334.392 502.071 332.74C497.932 329.912 495.459 325.32 495.459 320.448C495.459 319.664 496.07 319.048 496.848 319.048C497.626 319.048 498.237 319.664 498.237 320.448C498.237 324.396 500.238 328.12 503.627 330.416C505.6 331.76 507.906 332.404 510.684 332.404C511.351 332.404 512.462 332.32 513.573 332.124C514.323 331.984 515.046 332.488 515.185 333.272C515.324 334.028 514.824 334.756 514.046 334.896C512.462 335.204 511.073 335.232 510.684 335.232V335.232ZM505.1 341C504.988 341 504.849 340.972 504.738 340.944C500.321 339.712 497.431 338.06 494.403 335.064C492.484 333.154 490.962 330.878 489.927 328.368C488.892 325.859 488.364 323.166 488.374 320.448C488.374 315.912 492.208 312.216 496.931 312.216C501.654 312.216 505.488 315.912 505.488 320.448C505.488 323.444 508.072 325.88 511.267 325.88C514.462 325.88 517.046 323.444 517.046 320.448C517.046 309.892 508.017 301.324 496.904 301.324C489.013 301.324 481.79 305.748 478.539 312.608C477.456 314.876 476.9 317.536 476.9 320.448C476.9 322.632 477.094 326.076 478.761 330.556C479.039 331.284 478.678 332.096 477.956 332.348C477.233 332.628 476.428 332.236 476.178 331.536C474.839 327.995 474.152 324.237 474.149 320.448C474.149 317.088 474.788 314.036 476.039 311.376C479.734 303.564 487.93 298.496 496.904 298.496C509.545 298.496 519.824 308.324 519.824 320.42C519.824 324.956 515.99 328.652 511.267 328.652C506.544 328.652 502.71 324.956 502.71 320.42C502.71 317.424 500.126 314.988 496.931 314.988C493.736 314.988 491.153 317.424 491.153 320.42C491.153 325.208 492.986 329.688 496.348 333.048C498.987 335.68 501.516 337.136 505.433 338.228C506.183 338.424 506.6 339.208 506.405 339.936C506.266 340.58 505.683 341 505.1 341V341Z" fill="white"/>
<path d="M501.833 204.539H505.916C506.999 204.539 508.038 204.162 508.803 203.491C509.569 202.819 509.999 201.909 509.999 200.96V197.382" stroke="white" stroke-width="2" stroke-linecap="round" stroke-linejoin="round"/>
<path d="M509.999 187.157V183.579C509.999 182.629 509.569 181.719 508.803 181.048C508.038 180.377 506.999 180 505.916 180H501.833" stroke="white" stroke-width="2" stroke-linecap="round" stroke-linejoin="round"/>
<path d="M490.166 204.539H486.083C485 204.539 483.962 204.162 483.196 203.491C482.43 202.819 482 201.909 482 200.96V197.382" stroke="white" stroke-width="2" stroke-linecap="round" stroke-linejoin="round"/>
<path d="M482 187.157V183.579C482 182.629 482.43 181.719 483.196 181.048C483.962 180.377 485 180 486.083 180H490.166" stroke="white" stroke-width="2" stroke-linecap="round" stroke-linejoin="round"/>
<path d="M486.948 208.705L505.447 208.707C506.295 208.707 507.112 209.027 507.734 209.604C508.356 210.18 508.737 210.97 508.801 211.815L508.811 212.066V216.264C508.809 223.319 501.601 225.503 496.198 225.503C490.902 225.503 483.872 223.407 483.593 216.681L483.585 216.264V212.065C483.585 210.294 484.957 208.843 486.696 208.715L486.948 208.705ZM496.198 183.504C497.412 183.504 498.615 183.743 499.738 184.208C500.86 184.672 501.88 185.353 502.738 186.211C503.597 187.069 504.279 188.087 504.743 189.209C505.208 190.33 505.447 191.531 505.447 192.744C505.447 193.958 505.208 195.159 504.743 196.28C504.278 197.401 503.596 198.42 502.737 199.278C501.878 200.135 500.858 200.816 499.736 201.28C498.614 201.744 497.411 201.983 496.196 201.983C493.743 201.983 491.39 201.009 489.655 199.276C487.921 197.543 486.946 195.193 486.947 192.743C486.947 190.292 487.922 187.942 489.657 186.21C491.391 184.477 493.744 183.504 496.198 183.504Z" fill="white"/>
<defs>
<linearGradient id="paint0_linear_104_2" x1="516.05" y1="28.9157" x2="479.203" y2="349.621" gradientUnits="userSpaceOnUse">
<stop stop-color="#FF928E"/>
<stop offset="1" stop-color="#FE7062"/>
</linearGradient>
<linearGradient id="paint1_linear_104_2" x1="258060" y1="49991.8" x2="243101" y2="184008" gradientUnits="userSpaceOnUse">
<stop stop-color="#FF928E"/>
<stop offset="1" stop-color="#FE7062"/>
</linearGradient>
<linearGradient id="paint2_linear_104_2" x1="269067" y1="51439" x2="254107" y2="185458" gradientUnits="userSpaceOnUse">
<stop stop-color="#FF928E"/>
<stop offset="1" stop-color="#FE7062"/>
</linearGradient>
<linearGradient id="paint3_linear_104_2" x1="304.319" y1="315.796" x2="277.172" y2="628.903" gradientUnits="userSpaceOnUse">
<stop stop-color="#7569F3"/>
<stop offset="1" stop-color="#1A0F91"/>
</linearGradient>
<linearGradient id="paint4_linear_104_2" x1="287.377" y1="411.908" x2="280.212" y2="252.247" gradientUnits="userSpaceOnUse">
<stop stop-color="#FEBBBA"/>
<stop offset="1" stop-color="#FF928E"/>
</linearGradient>
<linearGradient id="paint5_linear_104_2" x1="308068" y1="485094" x2="312261" y2="106605" gradientUnits="userSpaceOnUse">
<stop stop-color="#FEBBBA"/>
<stop offset="1" stop-color="#FF928E"/>
</linearGradient>
<linearGradient id="paint6_linear_104_2" x1="54800.2" y1="107693" x2="56233.5" y2="23924.9" gradientUnits="userSpaceOnUse">
<stop stop-color="#FEBBBA"/>
<stop offset="1" stop-color="#FF928E"/>
</linearGradient>
<linearGradient id="paint7_linear_104_2" x1="37984.1" y1="107475" x2="39301.6" y2="23609.4" gradientUnits="userSpaceOnUse">
<stop stop-color="#FEBBBA"/>
<stop offset="1" stop-color="#FF928E"/>
</linearGradient>
<linearGradient id="paint8_linear_104_2" x1="374.643" y1="227.185" x2="232.412" y2="12.0181" gradientUnits="userSpaceOnUse">
<stop stop-color="#09005D"/>
<stop offset="1" stop-color="#1A0F91"/>
</linearGradient>
<linearGradient id="paint9_linear_104_2" x1="110399" y1="15054" x2="110426" y2="13898.1" gradientUnits="userSpaceOnUse">
<stop stop-color="#09005D"/>
<stop offset="1" stop-color="#1A0F91"/>
</linearGradient>
<linearGradient id="paint10_linear_104_2" x1="532507" y1="15054" x2="532480" y2="13898.1" gradientUnits="userSpaceOnUse">
<stop stop-color="#09005D"/>
<stop offset="1" stop-color="#1A0F91"/>
</linearGradient>
</defs>
</svg>
