<svg width="114" height="185" viewBox="0 0 114 185" fill="none" xmlns="http://www.w3.org/2000/svg">
<path d="M107.061 178.388C108.367 180.39 109.272 182.624 109.728 184.969H79.0387C74.8367 184.331 70.79 182.921 67.1047 180.808C61.755 177.733 57.369 173.234 54.4378 167.813C51.4358 162.337 49.9108 156.077 49.9108 149.211C49.9108 142.345 51.3656 136.135 54.2328 130.668C57.124 125.16 61.1599 120.806 66.2333 117.721C71.3067 114.636 77.0023 113.113 83.2536 113.113C89.5049 113.113 95.2208 114.671 100.239 117.747C100.423 117.857 100.595 117.968 100.772 118.084C104.773 120.661 108.033 124.23 110.236 128.442C111.454 130.438 112.29 132.643 112.703 134.943C113.172 137.574 113.082 140.274 112.437 142.868C111.793 145.462 110.61 147.892 108.964 150C107.319 152.109 105.247 153.849 102.884 155.107C100.521 156.366 97.9186 157.115 95.2467 157.306H95.0344C94.5913 157.337 94.1439 157.353 93.6922 157.353H73.5979C74.1727 154.083 75.6147 151.025 77.774 148.498C79.4693 146.506 81.5697 144.897 83.9359 143.776C86.3021 142.656 88.8801 142.05 91.4989 141.999L96.6055 141.905C97.4333 141.887 98.221 141.546 98.799 140.954C99.3771 140.363 99.6992 139.569 99.6961 138.743C99.7196 138.155 99.5844 137.572 99.3047 137.054C98.4184 135.393 97.2842 133.877 95.9409 132.556C92.5494 129.213 88.3972 127.583 83.2536 127.583C82.9804 127.583 82.709 127.589 82.4394 127.6C80.8059 127.646 79.1854 127.905 77.619 128.37C74.9948 129.17 72.6108 130.607 70.6808 132.552C69.4055 133.801 68.319 135.228 67.4555 136.788C66.5731 138.401 65.9159 140.127 65.5022 141.918C64.9487 143.977 64.6462 146.096 64.6012 148.228C64.6012 148.566 64.6012 148.896 64.6012 149.22C64.6373 151.314 64.9199 153.396 65.4431 155.423C66.333 159.442 68.2124 162.746 71.1313 165.453C71.2513 165.562 71.3732 165.673 71.5006 165.779C74.173 168.155 77.537 169.615 81.1009 169.947H91.5579C94.6432 169.95 97.6786 170.724 100.387 172.198C103.095 173.673 105.389 175.801 107.061 178.388Z" fill="#FF0000"/>
<path d="M107.472 64.5901C102.325 73.7903 94.6184 81.3075 85.2826 86.2344C75.0656 90.8203 64.2966 91.3415 59.8952 92.4963C53.7805 94.0876 42.6145 96.7102 37.5337 100.173C31.9138 104.004 28.9063 108.864 26.6189 114.481C23.5689 121.964 22.1233 130.004 22.1233 138.083V184.98C19.2186 184.98 16.3423 184.409 13.6588 183.3C10.9752 182.191 8.53688 180.566 6.48303 178.517C4.42918 176.468 2.80004 174.035 1.68862 171.358C0.57721 168.681 0.00529598 165.811 0.00553845 162.914V128.153C0.00553845 112.216 7.14858 96.9865 19.7601 87.1994C20.1294 86.9158 20.4986 86.6377 20.8679 86.3651C21.2833 86.0557 21.7005 85.7537 22.1288 85.4608C33.1597 78.1901 45.8006 73.7107 58.9573 72.4102C73.0496 71.4083 84.714 64.7909 88.6021 54.6705C89.2728 52.9107 89.7074 51.0702 89.8945 49.1968C90.1394 46.732 89.964 44.2436 89.3757 41.8372C88.7339 39.1554 87.7066 36.5804 86.3257 34.1921C83.717 29.7037 80.1871 26.523 76.6589 24.2761C71.2107 20.8081 64.8209 19.1008 58.3573 19.1008H35.9681C32.2958 19.1008 28.7738 20.5561 26.1771 23.1465C23.5803 25.737 22.1215 29.2504 22.1215 32.9139V32.9139C22.0907 38.746 19.7463 44.3287 15.6009 48.4413C11.4555 52.5539 5.84637 54.8617 0 54.8602V32.796C0.0341854 24.0868 3.52606 15.7458 9.71119 9.59917C15.8963 3.45251 24.2708 0.000907592 33.0013 0H70.2193C84.3946 0 97.728 7.02812 105.493 18.865C105.547 18.9442 105.598 19.0271 105.65 19.1063C106.276 20.0677 106.871 21.0549 107.437 22.0531C107.472 22.1176 107.509 22.1802 107.544 22.2373C111.137 28.7226 113.015 36.0134 113.003 43.423C112.99 50.8326 111.087 58.117 107.472 64.5901V64.5901Z" fill="#FF0000"/>
<path d="M45.1568 129.552V113.074C43.1793 113.074 41.2211 113.462 39.3941 114.217C37.5671 114.972 35.9071 116.078 34.5088 117.473C33.1105 118.868 32.0014 120.524 31.2447 122.347C30.4881 124.169 30.0988 126.123 30.099 128.096V129.552H45.1568Z" fill="#FF0000"/>
<path d="M45.1568 139.19V169.977C45.1568 173.961 43.5704 177.782 40.7466 180.599C37.9228 183.417 34.0927 184.999 30.099 185V139.19H45.1568Z" fill="#FF0000"/>
</svg>
