<svg width="392" height="334" viewBox="0 0 392 334" fill="none" xmlns="http://www.w3.org/2000/svg">
<path d="M302.565 322.757L296.993 324.6L287.239 303.962L295.462 301.241L302.565 322.757Z" fill="#EE1B34"/>
<path d="M292.488 324.323L303.233 320.768L305.469 327.541L287.959 333.335C287.665 332.446 287.549 331.507 287.618 330.573C287.686 329.639 287.938 328.727 288.359 327.89C288.779 327.053 289.361 326.308 290.069 325.696C290.777 325.084 291.599 324.617 292.488 324.323V324.323Z" fill="#2F2E41"/>
<path d="M265.809 327.88L259.941 327.88L257.15 305.219L265.81 305.22L265.809 327.88Z" fill="#EE1B34"/>
<path d="M255.75 326.201H267.066V333.335H248.624C248.624 332.398 248.809 331.47 249.167 330.605C249.525 329.739 250.05 328.953 250.711 328.291C251.373 327.628 252.158 327.103 253.023 326.744C253.887 326.386 254.814 326.201 255.75 326.201V326.201Z" fill="#2F2E41"/>
<path d="M260.385 243.762L260.086 245.088C256.043 263.015 254.603 289.098 255.811 307.436L256.744 321.602C256.776 322.087 256.991 322.542 257.346 322.875C257.7 323.207 258.168 323.392 258.654 323.392H265.689C266.158 323.392 266.611 323.22 266.961 322.908C267.312 322.596 267.536 322.166 267.59 321.7L273.05 275.234C273.102 274.799 273.3 274.394 273.614 274.088C273.927 273.781 274.335 273.591 274.771 273.55C275.207 273.509 275.644 273.618 276.01 273.861C276.375 274.103 276.646 274.463 276.778 274.881L290.928 316.87C291.045 317.239 291.269 317.563 291.573 317.802C291.877 318.04 292.246 318.181 292.631 318.206L303.377 318.9C303.687 318.92 303.997 318.864 304.281 318.737C304.565 318.61 304.814 318.416 305.006 318.171C305.198 317.926 305.327 317.639 305.383 317.332C305.439 317.026 305.42 316.711 305.327 316.414L298.859 298.608C293.861 282.628 291.174 258.346 290.881 241.604C290.876 241.34 290.817 241.079 290.707 240.839C290.597 240.599 290.439 240.384 290.242 240.208C290.045 240.032 289.814 239.899 289.564 239.816C289.313 239.734 289.048 239.704 288.785 239.729L262.071 242.277C261.67 242.315 261.29 242.479 260.988 242.746C260.685 243.013 260.474 243.369 260.385 243.762Z" fill="#2F2E41"/>
<path d="M276.028 169.328C282.52 169.328 287.783 164.058 287.783 157.558C287.783 151.058 282.52 145.789 276.028 145.789C269.535 145.789 264.272 151.058 264.272 157.558C264.272 164.058 269.535 169.328 276.028 169.328Z" fill="#A0616A"/>
<path d="M268.311 247.618C265.97 247.614 263.63 247.49 261.301 247.248C260.553 247.167 259.867 246.795 259.388 246.214C258.91 245.632 258.678 244.886 258.742 244.136L262.75 205.366C263.716 194.399 265.21 183.814 272.765 174.848C273.022 174.544 273.338 174.297 273.695 174.122C274.052 173.946 274.441 173.847 274.838 173.829L275.122 173.818C278.102 173.694 279.476 173.802 279.862 174.19L281.941 176.241C294.617 185.626 295.144 245.083 292.021 243.911C291.416 243.685 284.202 243.912 283.7 244.255C279.628 247.034 273.084 247.618 268.311 247.618Z" fill="#FF8787"/>
<path d="M222.187 226.098C222.486 225.461 222.922 224.897 223.462 224.446C224.003 223.995 224.636 223.668 225.316 223.488C225.996 223.309 226.708 223.281 227.4 223.406C228.093 223.532 228.749 223.807 229.323 224.214L243.234 214.251L243.572 223.143L230.31 231.241C229.563 232.162 228.505 232.776 227.336 232.968C226.167 233.16 224.968 232.916 223.967 232.282C222.966 231.648 222.231 230.668 221.903 229.529C221.575 228.389 221.676 227.169 222.187 226.098Z" fill="#A0616A"/>
<path d="M236.003 228.727L231.291 220.423L274.209 189.441C275.177 188.742 276.279 188.25 277.446 187.997C278.613 187.743 279.819 187.733 280.99 187.968C282.161 188.202 283.271 188.676 284.251 189.359C285.23 190.043 286.059 190.921 286.684 191.939C287.31 192.957 287.719 194.094 287.886 195.278C288.052 196.461 287.974 197.667 287.654 198.819C287.335 199.97 286.782 201.044 286.029 201.972C285.277 202.9 284.341 203.663 283.281 204.213L236.003 228.727Z" fill="#FF8787"/>
<path d="M281.309 167.509C281.708 167.902 282.234 168.138 282.792 168.174C283.35 168.21 283.902 168.043 284.347 167.704C287.117 165.648 289.55 163.088 290.989 159.966C292.639 156.389 292.823 151.999 290.834 148.6C289.153 145.726 286.184 143.871 283.226 142.348C282.077 141.699 280.839 141.221 279.553 140.931C278.252 140.643 276.891 140.863 275.747 141.545C275.187 141.897 274.746 142.409 274.481 143.015C274.216 143.621 274.14 144.293 274.263 144.943C272.842 143.32 271.021 142.097 268.983 141.395C267.699 140.892 266.293 140.79 264.95 141.102C263.072 141.635 261.702 143.305 260.952 145.109C260.346 146.481 260.136 147.996 260.348 149.482C260.459 150.221 260.724 150.929 261.126 151.559C261.527 152.189 262.056 152.728 262.679 153.14C264.231 154.102 266.212 154.032 267.994 153.64C269.777 153.247 271.503 152.564 273.32 152.391C275.137 152.218 277.161 152.672 278.266 154.126C279.045 155.149 279.245 156.487 279.42 157.762L280.329 164.394C280.404 165.353 280.648 166.292 281.052 167.165C281.122 167.291 281.209 167.406 281.309 167.509V167.509Z" fill="#2F2E41"/>
<path d="M306.674 249.974C306.103 249.562 305.63 249.029 305.288 248.414C304.945 247.798 304.742 247.115 304.691 246.412C304.641 245.71 304.745 245.005 304.997 244.347C305.248 243.689 305.641 243.094 306.146 242.604L298.945 227.072L307.735 228.388L313.226 242.935C313.992 243.841 314.399 244.996 314.37 246.181C314.342 247.367 313.88 248.501 313.073 249.369C312.265 250.236 311.167 250.777 309.988 250.889C308.809 251 307.629 250.675 306.674 249.974V249.974Z" fill="#A0616A"/>
<path d="M311.489 233.475L303.195 238.192L272.249 195.224C271.551 194.254 271.06 193.151 270.807 191.983C270.554 190.815 270.544 189.607 270.778 188.434C271.012 187.262 271.485 186.151 272.168 185.17C272.85 184.189 273.727 183.36 274.745 182.734C275.762 182.107 276.897 181.698 278.079 181.531C279.261 181.364 280.465 181.443 281.616 181.762C282.766 182.082 283.839 182.636 284.766 183.39C285.693 184.143 286.455 185.08 287.004 186.141L311.489 233.475Z" fill="#FF8787"/>
<path d="M235.944 79.203H234.115V29.0363C234.115 21.3354 231.059 13.9499 225.62 8.50454C220.181 3.05918 212.804 3.81272e-06 205.113 0H98.9491C91.2573 0 83.8805 3.05917 78.4416 8.50453C73.0026 13.9499 69.947 21.3354 69.947 29.0363V304.26C69.947 311.961 73.0026 319.346 78.4416 324.791C83.8805 330.237 91.2573 333.296 98.9491 333.296H205.113C212.804 333.296 220.181 330.237 225.62 324.791C231.059 319.346 234.114 311.961 234.114 304.26V114.913H235.943L235.944 79.203Z" fill="#EE1B34"/>
<path d="M206.283 7.55127H192.426C193.063 9.11561 193.307 10.8129 193.134 12.4935C192.962 14.1741 192.38 15.7866 191.438 17.1887C190.497 18.5909 189.226 19.7398 187.736 20.5341C186.247 21.3285 184.585 21.7439 182.898 21.7438H122.078C120.391 21.7438 118.729 21.3282 117.24 20.5338C115.751 19.7394 114.48 18.5905 113.538 17.1884C112.597 15.7862 112.015 14.1739 111.843 12.4933C111.67 10.8127 111.914 9.11554 112.551 7.55127H99.608C93.8638 7.55127 88.3549 9.83583 84.2931 13.9024C80.2313 17.9689 77.9495 23.4843 77.9495 29.2353V304.059C77.9495 309.81 80.2313 315.325 84.2931 319.392C88.3549 323.459 93.8638 325.743 99.608 325.743H206.283C212.027 325.743 217.536 323.459 221.598 319.392C225.659 315.325 227.941 309.81 227.941 304.059V29.2348C227.941 23.484 225.659 17.9687 221.597 13.9022C217.536 9.83576 212.027 7.55127 206.283 7.55127H206.283Z" fill="white"/>
<path d="M152.945 170.115C143.006 170.115 133.289 167.164 125.024 161.635C116.76 156.106 110.318 148.248 106.515 139.054C102.711 129.86 101.715 119.743 103.655 109.983C105.594 100.223 110.38 91.2573 117.409 84.2205C124.437 77.1838 133.392 72.3917 143.141 70.4502C152.89 68.5088 162.995 69.5052 172.178 73.3135C181.361 77.1217 189.21 83.5708 194.732 91.8452C200.254 100.12 203.202 109.848 203.202 119.799C203.187 133.139 197.887 145.928 188.465 155.361C179.044 164.794 166.27 170.1 152.945 170.115V170.115ZM152.945 70.4418C143.195 70.4418 133.663 73.3366 125.556 78.76C117.449 84.1835 111.13 91.892 107.399 100.911C103.668 109.93 102.691 119.854 104.594 129.428C106.496 139.003 111.191 147.797 118.086 154.7C124.98 161.603 133.765 166.303 143.328 168.208C152.891 170.112 162.803 169.135 171.811 165.399C180.82 161.663 188.519 155.337 193.936 147.22C199.353 139.104 202.245 129.561 202.245 119.799C202.23 106.713 197.031 94.1676 187.789 84.9146C178.547 75.6615 166.016 70.4566 152.945 70.4418V70.4418Z" fill="#770E1A"/>
<path d="M171.404 105.183C175.708 101.542 178.322 95.7894 177.637 90.1897C176.951 84.59 172.704 79.4422 167.196 78.253C161.688 77.0639 155.408 80.3556 153.735 85.7428C152.815 75.3565 151.754 64.5349 146.238 55.69C141.244 47.6811 132.594 41.9505 123.219 40.9253C113.844 39.9 103.974 43.7722 98.1275 51.1802C92.2809 58.5882 90.8493 69.358 94.9442 77.863C97.9607 84.1284 103.518 88.7911 109.341 92.5845C127.918 104.687 150.963 108.776 172.89 105.545L171.404 105.183Z" fill="#E6E6E6"/>
<path d="M107.398 43.9866C115.133 50.2945 122.23 57.3494 128.584 65.0493C138.529 77.0583 146.577 90.5226 152.447 104.973C152.876 106.027 151.167 106.486 150.742 105.444C141.138 81.9586 125.805 61.2591 106.148 45.2384C105.265 44.5187 106.522 43.2729 107.398 43.9866V43.9866Z" fill="white"/>
<path d="M110.03 219.472C112.938 219.472 115.295 217.112 115.295 214.201C115.295 211.29 112.938 208.93 110.03 208.93C107.122 208.93 104.765 211.29 104.765 214.201C104.765 217.112 107.122 219.472 110.03 219.472Z" fill="#770E1A"/>
<path d="M197.297 218.034H130.288C129.273 218.034 128.299 217.63 127.58 216.912C126.862 216.193 126.459 215.217 126.459 214.201C126.459 213.184 126.862 212.209 127.58 211.49C128.299 210.771 129.273 210.367 130.288 210.367H197.297C198.312 210.367 199.286 210.771 200.004 211.49C200.722 212.209 201.126 213.184 201.126 214.201C201.126 215.217 200.722 216.193 200.004 216.912C199.286 217.63 198.312 218.034 197.297 218.034Z" fill="#CCCCCC"/>
<path d="M176.514 218.081H130.011C128.983 218.081 127.998 217.672 127.271 216.944C126.544 216.217 126.136 215.23 126.136 214.201C126.136 213.172 126.544 212.185 127.271 211.457C127.998 210.73 128.983 210.321 130.011 210.321H176.514C177.542 210.321 178.527 210.73 179.254 211.457C179.981 212.185 180.389 213.172 180.389 214.201C180.389 215.23 179.981 216.217 179.254 216.944C178.527 217.672 177.542 218.081 176.514 218.081Z" fill="#FF8787"/>
<path d="M110.03 242.473C112.938 242.473 115.295 240.113 115.295 237.202C115.295 234.291 112.938 231.931 110.03 231.931C107.122 231.931 104.765 234.291 104.765 237.202C104.765 240.113 107.122 242.473 110.03 242.473Z" fill="#770E1A"/>
<path d="M197.297 241.036H130.288C129.273 241.036 128.299 240.632 127.58 239.913C126.862 239.194 126.459 238.219 126.459 237.202C126.459 236.186 126.862 235.21 127.58 234.491C128.299 233.773 129.273 233.369 130.288 233.369H197.297C198.312 233.369 199.286 233.773 200.004 234.491C200.722 235.21 201.126 236.186 201.126 237.202C201.126 238.219 200.722 239.194 200.004 239.913C199.286 240.632 198.312 241.036 197.297 241.036Z" fill="#CCCCCC"/>
<path d="M110.03 265.475C112.938 265.475 115.295 263.115 115.295 260.204C115.295 257.293 112.938 254.933 110.03 254.933C107.122 254.933 104.765 257.293 104.765 260.204C104.765 263.115 107.122 265.475 110.03 265.475Z" fill="#770E1A"/>
<path d="M197.297 264.037H130.288C129.273 264.037 128.299 263.633 127.58 262.914C126.862 262.196 126.459 261.22 126.459 260.204C126.459 259.187 126.862 258.212 127.58 257.493C128.299 256.774 129.273 256.37 130.288 256.37H197.297C198.312 256.37 199.286 256.774 200.004 257.493C200.722 258.212 201.126 259.187 201.126 260.204C201.126 261.22 200.722 262.196 200.004 262.914C199.286 263.633 198.312 264.037 197.297 264.037Z" fill="#CCCCCC"/>
<path d="M161.198 241.082H130.011C128.983 241.082 127.998 240.673 127.271 239.946C126.544 239.218 126.136 238.231 126.136 237.202C126.136 236.173 126.544 235.186 127.271 234.459C127.998 233.731 128.983 233.323 130.011 233.323H161.198C162.225 233.323 163.211 233.731 163.938 234.459C164.665 235.186 165.073 236.173 165.073 237.202C165.073 238.231 164.665 239.218 163.938 239.946C163.211 240.673 162.225 241.082 161.198 241.082V241.082Z" fill="#FF8787"/>
<path d="M188.958 264.084H130.011C128.983 264.084 127.998 263.675 127.271 262.947C126.544 262.22 126.136 261.233 126.136 260.204C126.136 259.175 126.544 258.188 127.271 257.46C127.998 256.733 128.983 256.324 130.011 256.324H188.958C189.986 256.324 190.972 256.733 191.699 257.46C192.425 258.188 192.834 259.175 192.834 260.204C192.834 261.233 192.425 262.22 191.699 262.947C190.972 263.675 189.986 264.084 188.958 264.084V264.084Z" fill="#FF8787"/>
<path d="M179.554 111.976H172.976V92.5133C172.976 91.9416 173.203 91.3935 173.607 90.9892C174.011 90.585 174.559 90.3576 175.13 90.3569H177.4C177.971 90.3576 178.519 90.585 178.923 90.9892C179.326 91.3935 179.553 91.9416 179.554 92.5133V111.976Z" fill="#770E1A"/>
<path d="M183.542 145.094H120.66L120.434 109.611C120.432 109.063 120.539 108.52 120.751 108.015C120.962 107.509 121.272 107.051 121.664 106.667L137.46 91.2632C138.21 90.5298 139.214 90.1158 140.262 90.108L166.7 89.866C167.3 89.8623 167.893 89.9905 168.437 90.2414C168.982 90.4923 169.465 90.8599 169.852 91.3181L169.854 91.3209L182.412 106.739C183.142 107.638 183.541 108.76 183.542 109.919L183.542 145.094Z" fill="#770E1A"/>
<path d="M183.542 145.094H149.75V113.294C149.75 112.325 150.095 111.388 150.723 110.651L165.405 93.4169V93.4172C165.787 92.9684 166.261 92.6081 166.796 92.3612C167.33 92.1142 167.912 91.9866 168.5 91.9871H168.516C169.107 91.9888 169.691 92.1198 170.226 92.3708C170.762 92.6218 171.236 92.9868 171.616 93.4403L182.589 106.519C183.204 107.254 183.542 108.181 183.542 109.139V145.094Z" fill="#FF8787"/>
<path d="M169.208 132.88H164.319C164.001 132.88 163.697 132.753 163.473 132.529C163.249 132.304 163.122 132 163.122 131.682V127.578C163.122 127.261 163.249 126.956 163.473 126.731C163.697 126.507 164.001 126.38 164.319 126.38H169.208C169.525 126.381 169.829 126.507 170.053 126.731C170.278 126.956 170.404 127.261 170.404 127.578V131.682C170.404 132 170.278 132.304 170.053 132.529C169.829 132.753 169.525 132.88 169.208 132.88V132.88Z" fill="white"/>
<path d="M169.208 122.364H164.319C164.001 122.363 163.697 122.237 163.473 122.012C163.249 121.788 163.122 121.483 163.122 121.166V117.157C163.122 116.839 163.249 116.535 163.473 116.31C163.697 116.086 164.001 115.959 164.319 115.959H169.208C169.525 115.959 169.829 116.086 170.053 116.31C170.278 116.535 170.404 116.839 170.404 117.157V121.166C170.404 121.483 170.278 121.788 170.053 122.012C169.829 122.237 169.525 122.363 169.208 122.364V122.364Z" fill="white"/>
<path d="M138.972 131.283H134.083C133.766 131.282 133.462 131.156 133.237 130.931C133.013 130.707 132.887 130.402 132.886 130.085V125.981C132.887 125.663 133.013 125.359 133.237 125.134C133.462 124.909 133.766 124.783 134.083 124.783H138.972C139.289 124.783 139.593 124.909 139.818 125.134C140.042 125.359 140.168 125.663 140.169 125.981V130.085C140.168 130.402 140.042 130.707 139.818 130.931C139.593 131.156 139.289 131.282 138.972 131.283Z" fill="white"/>
<path d="M138.972 120.766H134.083C133.766 120.766 133.462 120.639 133.237 120.415C133.013 120.19 132.887 119.886 132.886 119.568V115.56C132.887 115.242 133.013 114.937 133.237 114.713C133.462 114.488 133.766 114.362 134.083 114.362H138.972C139.289 114.362 139.593 114.488 139.818 114.713C140.042 114.937 140.168 115.242 140.169 115.56V119.568C140.168 119.886 140.042 120.19 139.818 120.415C139.593 120.639 139.289 120.766 138.972 120.766Z" fill="white"/>
<path d="M195.712 145.509H110.179C110.052 145.509 109.93 145.459 109.84 145.369C109.751 145.279 109.7 145.157 109.7 145.03C109.7 144.903 109.751 144.781 109.84 144.691C109.93 144.601 110.052 144.551 110.179 144.551H195.712C195.839 144.551 195.961 144.601 196.051 144.691C196.14 144.781 196.191 144.903 196.191 145.03C196.191 145.157 196.14 145.279 196.051 145.369C195.961 145.459 195.839 145.509 195.712 145.509Z" fill="#770E1A"/>
<path d="M391.521 334H0.478632C0.351691 334 0.229949 333.949 0.140188 333.86C0.0504268 333.77 0 333.648 0 333.521C0 333.394 0.0504268 333.272 0.140188 333.182C0.229949 333.092 0.351691 333.042 0.478632 333.042H391.521C391.648 333.042 391.77 333.092 391.86 333.182C391.95 333.272 392 333.394 392 333.521C392 333.648 391.95 333.77 391.86 333.86C391.77 333.949 391.648 334 391.521 334Z" fill="#770E1A"/>
</svg>
