<svg width="114" height="185" viewBox="0 0 114 185" fill="none" xmlns="http://www.w3.org/2000/svg">
<path d="M107.472 64.5901C102.325 73.7903 94.6184 81.3075 85.2826 86.2344C75.0656 90.8203 64.2966 91.3415 59.8952 92.4963C53.7805 94.0876 42.6145 96.7102 37.5337 100.173C31.9138 104.004 28.9063 108.864 26.6189 114.481C23.5689 121.964 22.1233 130.004 22.1233 138.083V184.98C19.2186 184.98 16.3423 184.409 13.6588 183.3C10.9752 182.191 8.53688 180.566 6.48303 178.517C4.42918 176.468 2.80004 174.035 1.68862 171.358C0.57721 168.681 0.00529598 165.811 0.00553845 162.914V128.153C0.00553845 112.216 7.14858 96.9865 19.7601 87.1994C20.1294 86.9158 20.4986 86.6377 20.8679 86.3651C21.2833 86.0557 21.7005 85.7537 22.1288 85.4608C33.1597 78.1901 45.8006 73.7107 58.9573 72.4102C73.0496 71.4083 84.714 64.7909 88.6021 54.6705C89.2728 52.9107 89.7074 51.0702 89.8945 49.1968C90.1394 46.732 89.964 44.2436 89.3757 41.8372C88.7339 39.1554 87.7066 36.5804 86.3258 34.1921C83.717 29.7037 80.1871 26.523 76.6589 24.2761C71.2107 20.8081 64.8209 19.1008 58.3573 19.1008H35.9681C32.2958 19.1008 28.7738 20.5561 26.1771 23.1465C23.5803 25.737 22.1215 29.2504 22.1215 32.9139C22.0907 38.746 19.7463 44.3287 15.6009 48.4413C11.4555 52.5539 5.84637 54.8617 0 54.8602V32.796C0.0341854 24.0868 3.52606 15.7458 9.71119 9.59917C15.8963 3.45251 24.2708 0.000907592 33.0013 0H70.2193C84.3946 0 97.728 7.02812 105.493 18.865C105.547 18.9442 105.598 19.0271 105.65 19.1063C106.276 20.0677 106.871 21.0549 107.437 22.0531C107.472 22.1176 107.509 22.1802 107.544 22.2373C111.137 28.7226 113.015 36.0134 113.003 43.423C112.99 50.8326 111.087 58.117 107.472 64.5901Z" fill="#FF0000"/>
</svg>
